<?xml version="1.0" encoding="utf-8"?>
<!-- Generator: Adobe Illustrator 27.5.0, SVG Export Plug-In . SVG Version: 6.00 Build 0)  -->
<svg version="1.1" xmlns="http://www.w3.org/2000/svg" xmlns:xlink="http://www.w3.org/1999/xlink" x="0px" y="0px"
	 viewBox="0 0 500 500" style="enable-background:new 0 0 500 500;" xml:space="preserve">
<g id="Background_Complete">
	<g>
		<g>
			<rect x="309.451" y="32.286" style="fill:#EBEBEB;" width="141.758" height="254.659"/>
		</g>
		<g>
			<rect x="315.116" y="39.671" style="fill:#FAFAFA;" width="128.969" height="239.688"/>
		</g>
		<g>
			<polygon style="fill:#E0E0E0;" points="457.205,289.241 451.21,286.946 451.21,27.967 457.205,27.967 			"/>
		</g>
		<g>
			<path style="fill:#F5F5F5;" d="M346.733,194.497c11.164-10.377,22.329-20.755,33.493-31.132c4.244-3.945,9.792-8.195,15.25-6.25
				c2.626,0.935,4.601,3.177,7.174,4.249c5.142,2.143,11.016-0.95,14.97-4.875c3.954-3.924,7.075-8.833,11.864-11.678
				c4.789-2.845,12.232-2.484,14.6,2.559v33.883l-48.676,20.84L346.733,194.497z"/>
		</g>
		<g>
			<path style="fill:#E0E0E0;" d="M315.116,175.023c12.343-5.026,24.659-0.754,33.493,9.224c1.859,2.1,3.552,4.526,6.107,5.685
				c3.46,1.569,7.457,0.395,11.232-0.033c10.317-1.169,21.092,4.054,26.566,12.877l-41.208,20.269l-36.191-0.263V175.023z"/>
		</g>
		<g>
			<path style="fill:#EBEBEB;" d="M444.085,175.191c-8.129-3.926-15.285,0.824-22.785,5.849
				c-7.499,5.025-14.469,11.47-23.266,13.494c-5.878,1.353-12.176,0.602-17.859,2.626c-11.577,4.123-18.271,18.824-30.54,19.525
				c-6.662,0.381-12.637-3.658-18.583-6.687c-5.946-3.029-10.635-5.906-15.937-1.854v71.217h128.969V175.191z"/>
		</g>
		<g>
			<rect x="315.116" y="108.623" style="fill:#E0E0E0;" width="131.77" height="2.552"/>
		</g>
		<g>
			<rect x="315.116" y="165.702" style="fill:#E0E0E0;" width="131.77" height="2.552"/>
		</g>
		<g>
			<rect x="315.116" y="222.781" style="fill:#E0E0E0;" width="131.77" height="2.552"/>
		</g>
		<g>
			
				<rect x="291.472" y="194.769" transform="matrix(6.123234e-17 -1 1 6.123234e-17 181.5731 577.6276)" style="fill:#E0E0E0;" width="176.257" height="6.516"/>
		</g>
		<g>
			<rect x="339.95" y="39.671" style="fill:#E0E0E0;" width="2.952" height="70.228"/>
		</g>
		<g>
			<rect x="365.409" y="39.671" style="fill:#E0E0E0;" width="2.952" height="70.228"/>
		</g>
		<g>
			<rect x="390.869" y="39.671" style="fill:#E0E0E0;" width="2.952" height="70.228"/>
		</g>
		<g>
			<rect x="416.328" y="39.671" style="fill:#E0E0E0;" width="2.952" height="70.228"/>
		</g>
		<g>
			<rect x="303.456" y="27.967" style="fill:#E0E0E0;" width="5.996" height="260.555"/>
		</g>
		<g>
			<rect x="303.456" y="25.338" style="fill:#E0E0E0;" width="153.75" height="6.948"/>
		</g>
		<g>
			<rect x="299.202" y="290.098" style="fill:#E0E0E0;" width="162.062" height="6.474"/>
		</g>
		<g>
			<polygon style="fill:#E0E0E0;" points="451.21,286.946 461.264,290.098 299.202,290.098 309.451,286.946 			"/>
		</g>
	</g>
	<g>
		<g>
			<g>
				<rect x="78.284" y="36.082" style="fill:#E0E0E0;" width="72.629" height="105.273"/>
			</g>
		</g>
		<g>
			<g>
				<rect x="74.646" y="36.082" style="fill:#F5F5F5;" width="72.629" height="105.273"/>
			</g>
		</g>
		<g>
			<g>
				<g>
					<rect x="83.669" y="47.484" style="fill:#FFFFFF;" width="54.582" height="82.469"/>
				</g>
			</g>
			<g>
				<g>
					<g>
						<path style="fill:#E0E0E0;" d="M138.251,129.954c0,0-0.007-0.14-0.011-0.403c-0.003-0.272-0.006-0.661-0.011-1.169
							c-0.005-1.036-0.012-2.554-0.022-4.523c-0.011-3.953-0.028-9.712-0.049-16.988c-0.022-14.542-0.053-35.135-0.089-59.385
							l0.181,0.181c-16.676,0.005-35.154,0.01-54.575,0.016h-0.007l0.197-0.197c-0.015,31.111-0.029,59.795-0.04,82.469
							l-0.157-0.157c16.622,0.035,30.247,0.063,39.729,0.083c4.743,0.017,8.446,0.031,10.976,0.04
							c1.257,0.008,2.22,0.014,2.881,0.018C137.908,129.942,138.251,129.954,138.251,129.954s-0.321,0.011-0.963,0.017
							c-0.654,0.004-1.607,0.01-2.852,0.018c-2.522,0.009-6.214,0.023-10.941,0.04c-9.505,0.02-23.163,0.048-39.826,0.083l-0.157,0
							l0-0.158c-0.011-22.674-0.025-51.358-0.04-82.469l0-0.198h0.198h0.007c19.421,0.006,37.9,0.011,54.575,0.016l0.182,0l0,0.181
							c-0.036,24.299-0.067,44.933-0.089,59.504c-0.021,7.258-0.037,13.004-0.049,16.947c-0.01,1.954-0.017,3.459-0.022,4.487
							c-0.005,0.5-0.008,0.882-0.011,1.149C138.258,129.828,138.251,129.954,138.251,129.954z"/>
					</g>
				</g>
			</g>
		</g>
		<g>
			<g>
				<g>
					<path style="fill:none;stroke:#FBFBFB;stroke-width:0.25;stroke-miterlimit:10;" d="M135.721,48.035"/>
				</g>
			</g>
		</g>
		<g>
			<g>
				<g>
					<path style="fill:#E0E0E0;" d="M147.479,36.082c0.042,0.033-0.451,0.753-1.294,1.881s-2.041,2.663-3.408,4.322
						c-1.367,1.66-2.644,3.129-3.59,4.174c-0.946,1.044-1.558,1.666-1.598,1.631c-0.042-0.036,0.495-0.723,1.386-1.813
						c0.974-1.181,2.172-2.635,3.497-4.242c1.324-1.608,2.52-3.062,3.493-4.244C146.864,36.707,147.435,36.049,147.479,36.082z"/>
				</g>
			</g>
		</g>
		<g>
			<g>
				<g>
					<path style="fill:#FFFFFF;" d="M138.529,129.688c2.711,4.311,5.911,8.313,9.52,11.906"/>
				</g>
			</g>
			<g>
				<g>
					<g>
						<path style="fill:#E0E0E0;" d="M148.049,141.594c-0.036,0.036-0.684-0.526-1.66-1.51c-0.976-0.983-2.269-2.399-3.591-4.05
							c-1.321-1.654-2.417-3.227-3.161-4.395c-0.745-1.168-1.151-1.924-1.108-1.951c0.049-0.031,0.538,0.671,1.339,1.794
							c0.801,1.124,1.926,2.661,3.239,4.305c1.314,1.642,2.566,3.077,3.486,4.106C147.513,140.921,148.09,141.553,148.049,141.594z"
							/>
					</g>
				</g>
			</g>
		</g>
		<g>
			<g>
				<g>
					<path style="fill:#FFFFFF;" d="M74.635,141.272c3.171-3.912,6.342-7.825,9.513-11.737"/>
				</g>
			</g>
			<g>
				<g>
					<g>
						<path style="fill:#E0E0E0;" d="M84.148,129.535c0.085,0.069-1.976,2.752-4.603,5.993c-2.627,3.242-4.826,5.813-4.91,5.745
							c-0.085-0.069,1.976-2.752,4.603-5.993C81.865,132.038,84.064,129.466,84.148,129.535z"/>
					</g>
				</g>
			</g>
		</g>
		<g>
			<g>
				<g>
					<path style="fill:#E0E0E0;" d="M74.646,36.083c0.086-0.068,2.153,2.404,4.618,5.52c2.465,3.117,4.394,5.698,4.308,5.765
						c-0.086,0.068-2.153-2.403-4.618-5.52C76.489,38.731,74.56,36.15,74.646,36.083z"/>
				</g>
			</g>
		</g>
		<g>
			<g>
				<rect x="102.97" y="64.229" style="fill:#E0E0E0;" width="18.276" height="51.891"/>
			</g>
		</g>
	</g>
	<g>
		<g>
			<g>
				<rect x="187.785" y="87.821" style="fill:#E0E0E0;" width="57.425" height="83.235"/>
			</g>
		</g>
		<g>
			<g>
				<rect x="184.909" y="87.821" style="fill:#FAFAFA;" width="57.425" height="83.235"/>
			</g>
		</g>
		<g>
			<g>
				<g>
					<rect x="192.043" y="96.836" style="fill:#FFFFFF;" width="43.156" height="65.205"/>
				</g>
			</g>
			<g>
				<g>
					<g>
						<path style="fill:#E0E0E0;" d="M235.199,162.041c0,0-0.006-0.11-0.008-0.319c-0.002-0.215-0.005-0.523-0.008-0.925
							c-0.004-0.82-0.01-2.019-0.017-3.577c-0.009-3.125-0.022-7.679-0.039-13.432c-0.017-11.498-0.042-27.78-0.07-46.953
							l0.143,0.143c-13.185,0.004-27.795,0.008-43.151,0.013h-0.005l0.156-0.156c-0.012,24.598-0.023,47.278-0.032,65.205
							l-0.124-0.124c13.143,0.027,23.915,0.05,31.412,0.065c3.75,0.014,6.678,0.024,8.678,0.032
							c0.994,0.006,1.756,0.011,2.278,0.014C234.927,162.033,235.199,162.041,235.199,162.041s-0.254,0.009-0.761,0.014
							c-0.517,0.003-1.271,0.008-2.255,0.014c-1.994,0.007-4.913,0.018-8.65,0.032c-7.515,0.016-18.314,0.038-31.489,0.065l-0.124,0
							l0-0.125c-0.009-17.927-0.02-40.607-0.032-65.205l0-0.156h0.156h0.005c15.356,0.005,29.966,0.009,43.151,0.013l0.143,0
							l0,0.143c-0.029,19.212-0.053,35.526-0.071,47.047c-0.016,5.739-0.03,10.282-0.038,13.4c-0.008,1.545-0.013,2.735-0.017,3.548
							c-0.004,0.395-0.006,0.697-0.008,0.909C235.205,161.942,235.199,162.041,235.199,162.041z"/>
					</g>
				</g>
			</g>
		</g>
		<g>
			<g>
				<g>
					<path style="fill:none;stroke:#FBFBFB;stroke-width:0.25;stroke-miterlimit:10;" d="M233.198,97.271"/>
				</g>
			</g>
		</g>
		<g>
			<g>
				<g>
					<path style="fill:#E0E0E0;" d="M242.495,87.821c0.034,0.026-0.356,0.595-1.024,1.487c-0.667,0.892-1.614,2.106-2.694,3.418
						c-1.081,1.312-2.091,2.474-2.839,3.3c-0.748,0.826-1.231,1.317-1.263,1.289c-0.033-0.029,0.392-0.572,1.096-1.433
						c0.77-0.934,1.717-2.083,2.765-3.354c1.046-1.271,1.993-2.421,2.762-3.356C242.009,88.315,242.46,87.794,242.495,87.821z"/>
				</g>
			</g>
		</g>
		<g>
			<g>
				<g>
					<path style="fill:#FFFFFF;" d="M235.419,161.831c2.143,3.408,4.674,6.573,7.527,9.414"/>
				</g>
			</g>
			<g>
				<g>
					<g>
						<path style="fill:#E0E0E0;" d="M242.946,171.245c-0.028,0.029-0.541-0.416-1.312-1.194c-0.772-0.777-1.794-1.896-2.839-3.202
							c-1.044-1.307-1.911-2.551-2.5-3.475c-0.589-0.924-0.91-1.521-0.876-1.543c0.039-0.024,0.425,0.531,1.059,1.419
							c0.633,0.888,1.523,2.104,2.561,3.403c1.039,1.298,2.029,2.433,2.756,3.246C242.522,170.713,242.978,171.212,242.946,171.245z
							"/>
					</g>
				</g>
			</g>
		</g>
		<g>
			<g>
				<g>
					<path style="fill:#FFFFFF;" d="M184.9,170.99c2.507-3.093,5.014-6.187,7.522-9.28"/>
				</g>
			</g>
			<g>
				<g>
					<g>
						<path style="fill:#E0E0E0;" d="M192.422,161.71c0.067,0.054-1.563,2.176-3.639,4.738c-2.077,2.563-3.815,4.596-3.882,4.542
							c-0.067-0.054,1.562-2.176,3.64-4.739C190.617,163.689,192.355,161.656,192.422,161.71z"/>
					</g>
				</g>
			</g>
		</g>
		<g>
			<g>
				<g>
					<path style="fill:#E0E0E0;" d="M184.909,87.821c0.068-0.054,1.702,1.901,3.651,4.364c1.949,2.464,3.474,4.505,3.406,4.559
						c-0.068,0.053-1.702-1.9-3.651-4.365C186.366,89.916,184.841,87.875,184.909,87.821z"/>
				</g>
			</g>
		</g>
		<g>
			<g>
				<rect x="207.303" y="110.075" style="fill:#F5F5F5;" width="14.45" height="41.028"/>
			</g>
		</g>
	</g>
</g>
<g id="Background_Simple" style="display:none;">
	<path style="display:inline;fill:#EBEBEB;" d="M427.948,199.857c-14.842-20.865-41.269-33.953-66.527-29.755
		c-20.702,3.441-40.829,17.605-60.936,11.595c-17.258-5.158-26.731-22.989-36.614-38.049c-16.907-25.763-40.69-47.796-69.618-58.414
		c-28.929-10.617-63.206-8.613-88.449,9.061c-32.747,22.928-44.523,67.434-39.17,107.049c5.354,39.615,24.826,75.718,43.959,110.817
		c23.749,40.391,61.279,62.534,108.91,69.632c45.184,6.733,94.636,8.553,136.884-8.827c42.248-17.379,77.261-54.794,85.683-99.695
		C446.791,248.105,442.791,220.722,427.948,199.857z"/>
</g>
<g id="Floor">
	<g>
		<g>
			<path style="fill:#263238;" d="M485.415,438.403c0,0.144-101.942,0.26-227.664,0.26c-125.766,0-227.686-0.117-227.686-0.26
				c0-0.144,101.92-0.26,227.686-0.26C383.473,438.143,485.415,438.259,485.415,438.403z"/>
		</g>
	</g>
	<g>
		<g>
			<path style="fill:#263238;" d="M452.298,478.262c0,0.144-49.759,0.26-111.127,0.26c-61.388,0-111.137-0.117-111.137-0.26
				s49.749-0.26,111.137-0.26C402.539,478.001,452.298,478.118,452.298,478.262z"/>
		</g>
	</g>
</g>
<g id="Plant">
	<g>
		<g>
			<g>
				<g>
					<g>
						<g>
							<path style="fill:#263238;" d="M425.317,413.565c-0.009-0.005,0.049-0.143,0.17-0.408c0.135-0.289,0.317-0.675,0.548-1.168
								c0.465-1.032,1.071-2.595,1.61-4.675c1.065-4.157,1.437-10.51-0.137-18.056c-0.731-3.778-1.91-7.831-3.349-12.128
								c-1.418-4.304-3.064-8.871-4.409-13.808c-1.33-4.925-2.379-10.272-2.177-15.876c0.204-5.616,1.866-11.221,3.695-16.8
								c1.824-5.589,3.711-11.051,4.277-16.546c0.639-5.485-0.535-10.869-3.033-15.28c-2.42-4.458-5.465-8.272-7.744-12.222
								c-2.314-3.937-3.762-7.985-4.654-11.75c-1.73-7.591-1.124-13.987-0.295-18.203c0.898-4.238,1.899-6.428,1.899-6.428
								c0.009,0.004-0.029,0.148-0.113,0.427c-0.095,0.304-0.222,0.712-0.384,1.232c-0.335,1.083-0.769,2.7-1.181,4.812
								c-0.757,4.207-1.292,10.559,0.472,18.066c0.91,3.723,2.364,7.718,4.67,11.6c2.273,3.903,5.331,7.7,7.799,12.211
								c2.551,4.46,3.778,10.02,3.128,15.591c-0.569,5.588-2.47,11.086-4.291,16.668c-1.828,5.575-3.471,11.121-3.679,16.643
								c-0.207,5.518,0.816,10.813,2.125,15.715c1.322,4.913,2.949,9.48,4.349,13.797c1.421,4.31,2.585,8.395,3.294,12.2
								c1.533,7.602,1.095,14.019-0.046,18.19c-0.577,2.088-1.221,3.648-1.723,4.669c-0.254,0.484-0.453,0.864-0.601,1.147
								C425.401,413.441,425.326,413.57,425.317,413.565z"/>
						</g>
					</g>
				</g>
			</g>
			<g>
				<g>
					<g>
						<g>
							<path style="fill:#0F4C81;" d="M417.862,290.494c0,0-4.627-14.796,3.673-23.459c0.291-0.304,0.804-0.16,0.879,0.254
								C422.858,269.733,423.412,277.175,417.862,290.494z"/>
						</g>
					</g>
				</g>
				<g>
					<g>
						<g>
							<g>
								<path style="fill:#263238;" d="M420.634,271.965c0.079,0.016-0.054,1.056-0.312,2.73c-0.304,1.88-0.661,4.088-1.056,6.526
									c-0.387,2.439-0.737,4.646-1.036,6.526c-0.254,1.671-0.405,2.707-0.49,2.701c-0.075-0.006-0.067-1.059,0.083-2.75
									c0.153-1.691,0.451-4.016,0.871-6.569c0.417-2.553,0.863-4.852,1.225-6.508C420.281,272.964,420.556,271.95,420.634,271.965
									z"/>
							</g>
						</g>
					</g>
				</g>
			</g>
			<g>
				<g>
					<g>
						<g>
							<path style="fill:#0F4C81;" d="M423.297,325.391c0,0,2.83-15.242,14.218-19.018c0.4-0.132,0.786,0.234,0.658,0.636
								C437.423,309.376,434.432,316.213,423.297,325.391z"/>
						</g>
					</g>
				</g>
				<g>
					<g>
						<g>
							<g>
								<path style="fill:#263238;" d="M434.413,310.309c0.062,0.051-0.542,0.909-1.552,2.267c-1.148,1.52-2.496,3.304-3.985,5.275
									c-1.483,1.975-2.825,3.762-3.967,5.284c-1.006,1.359-1.624,2.204-1.696,2.158c-0.064-0.04,0.436-0.967,1.359-2.392
									c0.926-1.423,2.277-3.339,3.842-5.4c1.563-2.061,3.032-3.885,4.126-5.179C433.634,311.027,434.351,310.259,434.413,310.309z
									"/>
							</g>
						</g>
					</g>
				</g>
			</g>
			<g>
				<g>
					<g>
						<g>
							<path style="fill:#0F4C81;" d="M420.22,363.628c0,0-1.719-15.407,8.081-22.327c0.344-0.243,0.82-0.004,0.815,0.417
								C429.085,344.201,428.209,351.612,420.22,363.628z"/>
						</g>
					</g>
				</g>
				<g>
					<g>
						<g>
							<g>
								<path style="fill:#263238;" d="M426.476,345.969c0.074,0.03-0.254,1.027-0.827,2.62c-0.657,1.788-1.429,3.886-2.281,6.205
									c-0.845,2.32-1.61,4.42-2.262,6.208c-0.568,1.592-0.914,2.58-0.996,2.557c-0.072-0.02,0.136-1.052,0.606-2.684
									c0.473-1.63,1.209-3.857,2.108-6.283c0.897-2.426,1.773-4.598,2.444-6.154C425.939,346.881,426.402,345.938,426.476,345.969
									z"/>
							</g>
						</g>
					</g>
				</g>
			</g>
			<g>
				<g>
					<g>
						<g>
							<path style="fill:#0F4C81;" d="M428.798,402.09c0,0-1.166-15.458,8.875-22.024c0.353-0.23,0.82,0.026,0.799,0.446
								C438.353,382.992,437.212,390.367,428.798,402.09z"/>
						</g>
					</g>
				</g>
				<g>
					<g>
						<g>
							<g>
								<path style="fill:#263238;" d="M435.683,384.665c0.073,0.033-0.291,1.017-0.92,2.589c-0.721,1.763-1.567,3.832-2.502,6.119
									c-0.928,2.289-1.767,4.359-2.483,6.123c-0.624,1.571-1.006,2.546-1.087,2.52c-0.072-0.022,0.174-1.046,0.702-2.66
									c0.531-1.612,1.346-3.811,2.331-6.203c0.983-2.392,1.936-4.531,2.663-6.063C435.113,385.558,435.61,384.632,435.683,384.665
									z"/>
							</g>
						</g>
					</g>
				</g>
			</g>
			<g>
				<g>
					<g>
						<g>
							<path style="fill:#0F4C81;" d="M411.213,277.495c0,0-13.741-7.176-14.011-19.171c-0.009-0.421,0.455-0.683,0.801-0.443
								C400.046,259.293,405.705,264.158,411.213,277.495z"/>
						</g>
					</g>
				</g>
				<g>
					<g>
						<g>
							<g>
								<path style="fill:#263238;" d="M400.055,262.444c0.067-0.044,0.71,0.784,1.712,2.149c1.116,1.543,2.426,3.355,3.874,5.357
									c1.453,1.997,2.768,3.804,3.888,5.343c1.004,1.36,1.63,2.199,1.565,2.254c-0.057,0.049-0.797-0.7-1.888-2.001
									c-1.089-1.302-2.524-3.156-4.035-5.257c-1.512-2.099-2.825-4.038-3.741-5.464
									C400.513,263.4,399.989,262.489,400.055,262.444z"/>
							</g>
						</g>
					</g>
				</g>
			</g>
			<g>
				<g>
					<g>
						<g>
							<path style="fill:#0F4C81;" d="M425.968,309.27c0,0-14.152-6.328-15.149-18.284c-0.035-0.42,0.413-0.709,0.773-0.491
								C413.716,291.78,419.661,296.293,425.968,309.27z"/>
						</g>
					</g>
				</g>
				<g>
					<g>
						<g>
							<g>
								<path style="fill:#263238;" d="M413.917,294.925c0.064-0.049,0.756,0.74,1.839,2.041c1.208,1.473,2.626,3.202,4.192,5.112
									c1.572,1.905,2.993,3.628,4.205,5.097c1.085,1.296,1.761,2.096,1.7,2.155c-0.054,0.052-0.838-0.65-2.006-1.883
									c-1.166-1.234-2.711-2.997-4.347-5.002c-1.637-2.003-3.065-3.859-4.066-5.226
									C414.432,295.851,413.854,294.974,413.917,294.925z"/>
							</g>
						</g>
					</g>
				</g>
			</g>
			<g>
				<g>
					<g>
						<g>
							<path style="fill:#0F4C81;" d="M417.826,344.714c0,0-9.717-12.079-5.159-23.177c0.16-0.39,0.69-0.443,0.912-0.085
								C414.884,323.564,418.12,330.288,417.826,344.714z"/>
						</g>
					</g>
				</g>
				<g>
					<g>
						<g>
							<g>
								<path style="fill:#263238;" d="M413.63,326.454c0.079-0.014,0.336,1.003,0.708,2.655c0.404,1.861,0.879,4.046,1.404,6.46
									c0.531,2.411,1.012,4.593,1.422,6.452c0.375,1.648,0.613,2.668,0.531,2.693c-0.072,0.022-0.45-0.961-0.928-2.59
									c-0.476-1.629-1.049-3.903-1.592-6.433c-0.545-2.529-0.971-4.831-1.24-6.505
									C413.667,327.513,413.552,326.469,413.63,326.454z"/>
							</g>
						</g>
					</g>
				</g>
			</g>
			<g>
				<g>
					<g>
						<g>
							<path style="fill:#0F4C81;" d="M427.451,386.424c0,0-14.044-6.565-14.84-18.536c-0.028-0.42,0.424-0.702,0.781-0.478
								C415.494,368.731,421.362,373.342,427.451,386.424z"/>
						</g>
					</g>
				</g>
				<g>
					<g>
						<g>
							<g>
								<path style="fill:#263238;" d="M415.642,371.878c0.065-0.047,0.744,0.752,1.805,2.072c1.183,1.493,2.571,3.245,4.106,5.181
									c1.539,1.931,2.932,3.678,4.118,5.167c1.063,1.314,1.725,2.125,1.663,2.183c-0.055,0.052-0.827-0.664-1.974-1.916
									c-1.145-1.253-2.661-3.042-4.262-5.074c-1.603-2.03-3-3.91-3.978-5.294C416.141,372.813,415.578,371.926,415.642,371.878z"
									/>
							</g>
						</g>
					</g>
				</g>
			</g>
			<g>
				<g>
					<g>
						<g>
							<g>
								<path style="fill:#263238;" d="M455.423,325.474c0.013,0.001,0.019,0.117,0.018,0.341c-0.007,0.27-0.015,0.595-0.025,0.991
									c-0.041,0.932-0.097,2.189-0.166,3.759c-0.181,3.305-0.434,7.912-0.735,13.424l-0.001,0.013l-0.003,0.019
									c-1.003,5.61-3.859,11.827-7.697,17.864c-2.815,4.447-5.766,8.49-8.311,12.25c-2.561,3.75-4.724,7.222-6.231,10.3
									c-1.517,3.073-2.399,5.713-2.915,7.558c-0.247,0.926-0.432,1.648-0.539,2.142c-0.115,0.492-0.186,0.75-0.205,0.746
									c-0.02-0.004,0.012-0.268,0.091-0.769c0.07-0.503,0.221-1.236,0.436-2.176c0.451-1.873,1.282-4.558,2.764-7.68
									c1.472-3.127,3.614-6.646,6.157-10.42c2.528-3.787,5.463-7.836,8.263-12.26c3.818-6.007,6.659-12.129,7.699-17.649
									l-0.004,0.032c0.387-5.507,0.71-10.109,0.942-13.411c0.127-1.566,0.228-2.821,0.303-3.75
									c0.039-0.394,0.072-0.718,0.099-0.986C455.39,325.587,455.41,325.473,455.423,325.474z"/>
							</g>
						</g>
					</g>
				</g>
				<g>
					<g>
						<g>
							<g>
								<path style="fill:#0F4C81;" d="M447.061,360.731c0,0,5.948-14.316-1.534-23.695c-0.263-0.329-0.787-0.232-0.899,0.174
									C443.966,339.602,442.74,346.964,447.061,360.731z"/>
							</g>
						</g>
					</g>
					<g>
						<g>
							<g>
								<g>
									<path style="fill:#263238;" d="M445.978,342.027c0.08-0.009,0.262,1.026,0.471,2.708c0.211,1.682,0.446,4.012,0.631,6.592
										c0.187,2.581,0.273,4.924,0.272,6.621c-0.004,1.698-0.091,2.747-0.166,2.746c-0.085-0.001-0.142-1.047-0.243-2.734
										c-0.127-1.899-0.276-4.129-0.441-6.593c-0.172-2.464-0.328-4.695-0.46-6.595
										C445.936,343.084,445.898,342.035,445.978,342.027z"/>
								</g>
							</g>
						</g>
					</g>
					<g style="opacity:0.3;">
						<g>
							<g>
								<path d="M447.061,360.731c0,0,5.948-14.316-1.534-23.695c-0.263-0.329-0.787-0.232-0.899,0.174
									C443.966,339.602,442.74,346.964,447.061,360.731z"/>
							</g>
						</g>
					</g>
				</g>
				<g>
					<g>
						<g>
							<g>
								<path style="fill:#0F4C81;" d="M428.639,395.23c0,0,4.767-14.751-3.45-23.493c-0.288-0.307-0.803-0.168-0.882,0.246
									C423.841,374.422,423.216,381.858,428.639,395.23z"/>
							</g>
						</g>
					</g>
					<g>
						<g>
							<g>
								<g>
									<path style="fill:#263238;" d="M426.043,376.675c0.079-0.015,0.344,1.002,0.69,2.661c0.346,1.659,0.77,3.962,1.163,6.519
										c0.395,2.557,0.671,4.885,0.808,6.577c0.134,1.693,0.132,2.746,0.057,2.751c-0.085,0.006-0.227-1.032-0.464-2.705
										c-0.28-1.883-0.61-4.093-0.974-6.535c-0.371-2.442-0.707-4.653-0.993-6.536
										C426.087,377.732,425.964,376.69,426.043,376.675z"/>
								</g>
							</g>
						</g>
					</g>
					<g style="opacity:0.3;">
						<g>
							<g>
								<path d="M428.639,395.23c0,0,4.767-14.751-3.45-23.493c-0.288-0.307-0.803-0.168-0.882,0.246
									C423.841,374.422,423.216,381.858,428.639,395.23z"/>
							</g>
						</g>
					</g>
				</g>
				<g>
					<g>
						<g>
							<g>
								<path style="fill:#0F4C81;" d="M454.635,343.235c0,0,12.7-8.89,11.418-20.819c-0.045-0.419-0.539-0.618-0.852-0.336
									C463.359,323.744,458.375,329.299,454.635,343.235z"/>
							</g>
						</g>
					</g>
					<g style="opacity:0.3;">
						<g>
							<g>
								<path d="M454.635,343.235c0,0,12.7-8.89,11.418-20.819c-0.045-0.419-0.539-0.618-0.852-0.336
									C463.359,323.744,458.375,329.299,454.635,343.235z"/>
							</g>
						</g>
					</g>
					<g>
						<g>
							<g>
								<g>
									<path style="fill:#263238;" d="M463.756,326.87c0.072,0.036-0.33,1.007-1.055,2.539c-0.725,1.532-1.776,3.625-3.005,5.901
										c-1.227,2.278-2.411,4.302-3.323,5.734c-0.914,1.431-1.551,2.27-1.614,2.228c-0.071-0.047,0.441-0.96,1.261-2.438
										c0.912-1.671,1.982-3.632,3.165-5.8c1.177-2.172,2.242-4.138,3.15-5.812C463.154,327.739,463.685,326.834,463.756,326.87z"
										/>
								</g>
							</g>
						</g>
					</g>
				</g>
				<g>
					<g>
						<g>
							<g>
								<path style="fill:#0F4C81;" d="M433.76,380.605c0,0,15.317-2.388,19.421-13.662c0.144-0.396-0.212-0.792-0.617-0.677
									C450.177,366.949,443.256,369.741,433.76,380.605z"/>
							</g>
						</g>
					</g>
					<g style="opacity:0.3;">
						<g>
							<g>
								<path d="M433.76,380.605c0,0,15.317-2.388,19.421-13.662c0.144-0.396-0.212-0.792-0.617-0.677
									C450.177,366.949,443.256,369.741,433.76,380.605z"/>
							</g>
						</g>
					</g>
					<g>
						<g>
							<g>
								<g>
									<path style="fill:#263238;" d="M449.157,369.93c0.049,0.064-0.74,0.758-2.066,1.814c-1.326,1.057-3.191,2.472-5.296,3.974
										c-2.105,1.505-4.059,2.8-5.508,3.684c-1.451,0.882-2.392,1.354-2.43,1.29c-0.043-0.073,0.819-0.667,2.206-1.633
										c1.554-1.098,3.379-2.388,5.396-3.813c2.013-1.432,3.835-2.727,5.387-3.831
										C448.233,370.445,449.108,369.866,449.157,369.93z"/>
								</g>
							</g>
						</g>
					</g>
				</g>
			</g>
		</g>
		<g>
			<g>
				<g>
					<polygon style="fill:#455A64;" points="419.148,408.794 414.68,438.867 442.525,438.867 438.915,408.794 					"/>
				</g>
			</g>
		</g>
		<g>
			<g>
				<g>
					<g>
						<path style="fill:#263238;" d="M440.028,418.113c0,0.16-5.028,0.29-11.228,0.29c-6.203,0-11.229-0.13-11.229-0.29
							c0-0.16,5.026-0.29,11.229-0.29C435,417.823,440.028,417.953,440.028,418.113z"/>
					</g>
				</g>
			</g>
		</g>
		<g>
			<g>
				<g>
					<g>
						<path style="fill:#263238;" d="M440.58,420.506c0,0.16-5.192,0.29-11.596,0.29c-6.406,0-11.597-0.13-11.597-0.29
							s5.191-0.29,11.597-0.29C435.388,420.216,440.58,420.346,440.58,420.506z"/>
					</g>
				</g>
			</g>
		</g>
	</g>
</g>
<g id="Character">
	<g>
		<g>
			<path style="fill:#0F4C81;" d="M428.739,478.236c2.534-15.728,0.145-32.395-7.729-46.245
				c-7.874-13.849-21.391-24.626-36.931-28.135c-15.54-3.509-32.861,0.685-44.355,11.716c-13.091-1.483-26.57-1.327-39.156,2.566
				c-12.586,3.893-24.253,11.825-30.816,23.249c-6.562,11.424-7.313,26.476-0.262,37.605L428.739,478.236z"/>
		</g>
		<g>
			<g>
				<path style="fill:#FAFAFA;" d="M377.052,402.647c0.006,0.12-1.812,0.063-4.611,0.764c-0.351,0.093-0.715,0.189-1.092,0.288
					c-0.373,0.131-0.759,0.266-1.156,0.406c-0.809,0.252-1.619,0.663-2.491,1.04c-1.699,0.855-3.497,1.939-5.227,3.296
					c-1.713,1.379-3.185,2.875-4.414,4.329c-0.564,0.765-1.162,1.451-1.597,2.179c-0.231,0.353-0.455,0.695-0.672,1.025
					c-0.188,0.342-0.369,0.673-0.543,0.991c-1.364,2.543-1.775,4.313-1.886,4.278c-0.035-0.009,0.067-0.446,0.282-1.235
					c0.058-0.206,0.119-0.424,0.185-0.655c0.093-0.238,0.191-0.489,0.294-0.753c0.209-0.542,0.446-1.162,0.798-1.804
					c0.168-0.329,0.342-0.67,0.523-1.024c0.212-0.342,0.431-0.695,0.657-1.059c0.428-0.75,1.022-1.458,1.586-2.245
					c1.23-1.497,2.72-3.031,4.464-4.435c1.761-1.382,3.601-2.474,5.343-3.321c0.895-0.373,1.725-0.775,2.556-1.014
					c0.408-0.132,0.803-0.26,1.185-0.384c0.387-0.09,0.76-0.177,1.12-0.261c0.708-0.19,1.37-0.256,1.946-0.33
					c0.282-0.035,0.549-0.068,0.803-0.099c0.24-0.004,0.467-0.009,0.681-0.013C376.604,402.6,377.052,402.612,377.052,402.647z"/>
			</g>
		</g>
		<g>
			<g>
				<path style="fill:#FAFAFA;" d="M337.439,420.292c0,0.009-0.079,0.023-0.234,0.043c-0.186,0.02-0.413,0.045-0.69,0.075
					c-0.605,0.075-1.504,0.107-2.648,0.272c-2.295,0.261-5.605,0.803-9.586,1.894c-1.994,0.533-4.133,1.27-6.401,2.129
					c-2.238,0.93-4.627,1.948-7.009,3.278c-4.8,2.577-9.735,6.083-14.212,10.502c-2.229,2.221-4.254,4.539-6.066,6.887
					c-1.796,2.363-3.352,4.769-4.717,7.129c-2.675,4.754-4.485,9.356-5.579,13.333c-1.108,3.976-1.64,7.288-1.887,9.584
					c-0.16,1.145-0.185,2.044-0.257,2.649c-0.029,0.277-0.052,0.504-0.071,0.69c-0.019,0.155-0.033,0.235-0.042,0.234
					c-0.009,0-0.013-0.081-0.011-0.237c0.005-0.187,0.012-0.415,0.02-0.694c0.038-0.608,0.031-1.512,0.161-2.664
					c0.186-2.31,0.664-5.648,1.734-9.661c1.056-4.015,2.844-8.667,5.517-13.471c1.363-2.385,2.924-4.816,4.728-7.202
					c1.822-2.372,3.859-4.71,6.106-6.948c4.516-4.458,9.502-7.981,14.351-10.555c2.407-1.328,4.819-2.339,7.08-3.258
					c2.29-0.848,4.449-1.569,6.461-2.082c4.017-1.052,7.351-1.541,9.661-1.741c1.152-0.134,2.055-0.134,2.663-0.175
					c0.278-0.009,0.506-0.017,0.694-0.024C337.358,420.279,337.438,420.283,337.439,420.292z"/>
			</g>
		</g>
		<g>
			<g>
				<path style="fill:#263238;" d="M382.884,408.908c-0.001,0.018-0.269,0.027-0.777,0.029c-0.508,0.02-1.256-0.046-2.217,0.023
					c-1.921,0.069-4.707,0.379-8.009,1.328c-3.284,0.964-7.109,2.578-10.769,5.269c-1.857,1.301-3.631,2.906-5.297,4.719
					c-1.685,1.799-3.168,3.901-4.423,6.186c-0.221,0.409-0.442,0.816-0.647,1.194l-0.12,0.222l-0.223-0.1
					c-4.626-2.088-9.549-2.715-13.897-2.334c-2.186,0.141-4.216,0.626-6.091,1.122c-1.85,0.586-3.545,1.233-5.008,1.996
					c-2.939,1.501-5.073,3.147-6.413,4.408c-1.344,1.258-2.013,2.036-2.056,1.997c-0.013-0.011,0.147-0.21,0.466-0.578
					c0.335-0.353,0.762-0.943,1.453-1.563c1.308-1.315,3.43-3.024,6.385-4.586c1.47-0.794,3.179-1.469,5.05-2.082
					c1.895-0.522,3.953-1.029,6.173-1.187c4.413-0.414,9.431,0.204,14.155,2.334l-0.343,0.122c0.208-0.384,0.432-0.799,0.657-1.215
					c1.277-2.325,2.788-4.458,4.503-6.281c1.696-1.836,3.504-3.457,5.394-4.764c3.726-2.706,7.616-4.305,10.949-5.233
					c3.35-0.913,6.169-1.168,8.104-1.176c0.968-0.039,1.719,0.061,2.227,0.074C382.62,408.865,382.886,408.89,382.884,408.908z"/>
			</g>
		</g>
		<g style="opacity:0.2;">
			<g>
				<path d="M320.467,431.528c1.68-7,6.424-13.573,12.714-17.075c6.289-3.502,13.566-4.888,20.758-5.206
					c4.421-0.195,9.161,0.094,12.727,2.715c0,0-9.337,3.343-16.154,15.58C340.177,422.419,328.576,424.619,320.467,431.528z"/>
			</g>
		</g>
		<g>
			<g>
				<path style="fill:#FAFAFA;" d="M321.824,478.993c-0.017,0.005-0.079-0.197-0.179-0.584c-0.108-0.444-0.246-1.008-0.415-1.703
					c-0.088-0.377-0.184-0.789-0.288-1.235c-0.097-0.453-0.148-0.955-0.232-1.49c-0.135-1.073-0.385-2.288-0.42-3.653
					c-0.04-0.683-0.082-1.396-0.125-2.138c-0.048-0.744,0.013-1.518,0.016-2.321c-0.02-1.608,0.186-3.312,0.367-5.108
					c0.498-3.573,1.396-7.46,2.856-11.366c1.5-3.894,3.42-7.391,5.403-10.403c0.522-0.735,1.031-1.453,1.526-2.151
					c0.479-0.709,1.054-1.314,1.55-1.943c0.522-0.609,0.98-1.237,1.505-1.766c0.514-0.536,1.009-1.051,1.482-1.544
					c0.915-1.013,1.887-1.782,2.681-2.516c0.791-0.741,1.533-1.305,2.147-1.756c0.574-0.426,1.04-0.772,1.407-1.045
					c0.325-0.234,0.5-0.35,0.511-0.335c0.01,0.015-0.144,0.159-0.448,0.419c-0.35,0.292-0.795,0.662-1.343,1.119
					c-0.592,0.474-1.312,1.058-2.079,1.815c-0.771,0.751-1.719,1.533-2.611,2.556c-0.462,0.497-0.945,1.016-1.447,1.556
					c-0.513,0.532-0.959,1.162-1.47,1.772c-0.485,0.63-1.049,1.234-1.517,1.942c-0.485,0.696-0.984,1.411-1.495,2.144
					c-1.943,3-3.83,6.468-5.315,10.322c-1.446,3.867-2.348,7.709-2.867,11.245c-0.191,1.777-0.412,3.464-0.411,5.057
					c-0.012,0.795-0.084,1.563-0.046,2.301c0.032,0.736,0.062,1.444,0.091,2.122c0.011,1.357,0.234,2.565,0.341,3.636
					c0.07,0.533,0.107,1.035,0.188,1.488c0.087,0.447,0.168,0.86,0.242,1.238c0.13,0.702,0.236,1.271,0.319,1.719
					C321.814,478.779,321.841,478.989,321.824,478.993z"/>
			</g>
		</g>
		<g>
			<g>
				<path style="fill:#FAFAFA;" d="M375.112,478.492c-0.012,0.014-0.175-0.114-0.474-0.369c-0.338-0.297-0.766-0.673-1.293-1.136
					c-0.559-0.497-1.25-1.099-1.98-1.871c-0.728-0.773-1.634-1.584-2.487-2.617c-0.876-1.012-1.865-2.098-2.796-3.369
					c-0.471-0.631-0.997-1.255-1.466-1.951c-0.472-0.695-0.957-1.409-1.454-2.141c-1.914-2.979-3.787-6.408-5.386-10.172
					c-3.164-7.559-4.663-14.864-5.454-20.14c-0.383-2.646-0.63-4.795-0.739-6.286c-0.052-0.699-0.094-1.267-0.128-1.716
					c-0.023-0.393-0.027-0.599-0.009-0.601c0.018-0.002,0.057,0.202,0.114,0.591c0.059,0.445,0.133,1.01,0.225,1.704
					c0.17,1.482,0.473,3.62,0.901,6.249c0.882,5.246,2.43,12.493,5.57,19.995c1.587,3.736,3.432,7.143,5.309,10.115
					c0.487,0.731,0.962,1.444,1.425,2.138c0.459,0.695,0.975,1.32,1.435,1.952c0.91,1.274,1.877,2.366,2.73,3.388
					c0.83,1.043,1.713,1.868,2.418,2.657c0.707,0.788,1.375,1.409,1.911,1.927c0.499,0.491,0.905,0.89,1.225,1.205
					C374.984,478.324,375.124,478.478,375.112,478.492z"/>
			</g>
		</g>
		<g>
			<g>
				<path style="fill:#FAFAFA;" d="M415.697,478.299c-0.009,0-0.016-0.086-0.02-0.254c-0.002-0.198-0.004-0.443-0.007-0.744
					c-0.001-0.695-0.002-1.65-0.004-2.859c-0.022-2.481-0.098-6.075-0.554-10.484c-0.457-4.405-1.362-9.627-3.111-15.217
					c-1.734-5.579-4.384-11.528-8.336-17.002c-1.978-2.73-4.163-5.212-6.508-7.357c-2.352-2.136-4.843-3.95-7.379-5.391
					c-5.081-2.897-10.259-4.302-14.638-4.804c-4.402-0.46-8.003-0.063-10.42,0.447c-0.598,0.136-1.133,0.258-1.605,0.365
					c-0.462,0.118-0.845,0.245-1.16,0.331c-0.29,0.081-0.525,0.147-0.716,0.2c-0.163,0.042-0.247,0.06-0.25,0.051
					c-0.003-0.008,0.076-0.043,0.233-0.102c0.187-0.066,0.418-0.148,0.702-0.249c0.311-0.103,0.691-0.247,1.151-0.381
					c0.471-0.122,1.006-0.26,1.603-0.414c2.419-0.575,6.048-1.034,10.501-0.616c4.429,0.459,9.679,1.842,14.836,4.752
					c2.575,1.448,5.103,3.276,7.487,5.431c2.377,2.164,4.589,4.671,6.587,7.429c3.993,5.529,6.652,11.541,8.372,17.165
					c1.735,5.633,2.607,10.894,3.019,15.322c0.41,4.433,0.43,8.038,0.39,10.522c-0.025,1.243-0.055,2.207-0.094,2.861
					c-0.018,0.301-0.033,0.545-0.044,0.743C415.717,478.213,415.706,478.299,415.697,478.299z"/>
			</g>
		</g>
	</g>
	<g>
		<g>
			<g>
				<g>
					<path style="fill:#F5F5F5;" d="M259.986,226.679c-3.01-1.195-4.439-5.278-2.832-8.089c1.126-1.97,3.392-3.212,4.113-5.363
						c0.532-1.588,0.093-3.335-0.531-4.889c-0.624-1.554-1.438-3.062-1.683-4.719c-0.245-1.657,0.236-3.568,1.67-4.434
						c1.995-1.205,4.583,0.191,6.141,1.925c3.267,3.633,4.539,8.958,3.267,13.675c-0.551,2.045-1.537,3.947-2.173,5.967
						c-0.637,2.02-0.9,4.285-0.014,6.208"/>
				</g>
				<g>
					<g>
						<path style="fill:#263238;" d="M262.317,205.066c0.02-0.021,0.252,0.154,0.597,0.547c0.349,0.389,0.776,1.03,1.126,1.906
							c0.353,0.873,0.572,2,0.516,3.253c-0.068,1.247-0.458,2.63-1.305,3.825c-0.848,1.172-1.852,2.063-2.369,3.112
							c-0.533,1.039-0.664,2.13-0.605,3.015c0.126,1.805,0.89,2.75,0.793,2.793c-0.022,0.016-0.229-0.19-0.493-0.645
							c-0.26-0.453-0.556-1.173-0.666-2.116c-0.11-0.935-0.014-2.112,0.542-3.261c0.55-1.165,1.584-2.098,2.373-3.2
							c0.784-1.106,1.161-2.382,1.251-3.556c0.078-1.177-0.09-2.25-0.384-3.097C263.112,205.929,262.229,205.133,262.317,205.066z"
							/>
					</g>
				</g>
				<g>
					<g>
						<path style="fill:#263238;" d="M265.889,204.68c0.02-0.021,0.252,0.154,0.597,0.547c0.349,0.389,0.776,1.03,1.125,1.906
							c0.353,0.873,0.572,2,0.516,3.253c-0.068,1.247-0.458,2.63-1.305,3.825c-0.848,1.172-1.852,2.063-2.369,3.113
							c-0.533,1.039-0.664,2.13-0.605,3.014c0.126,1.805,0.89,2.75,0.793,2.793c-0.022,0.016-0.229-0.19-0.493-0.645
							c-0.26-0.453-0.556-1.173-0.666-2.116c-0.11-0.935-0.014-2.112,0.542-3.261c0.55-1.165,1.584-2.098,2.373-3.2
							c0.783-1.106,1.16-2.382,1.251-3.555c0.078-1.177-0.09-2.25-0.384-3.097C266.684,205.543,265.801,204.747,265.889,204.68z"/>
					</g>
				</g>
				<g>
					<path style="fill:#F5F5F5;" d="M256.072,182.646c-0.888,0.484-1.455,1.454-1.58,2.458c-0.125,1.004,0.156,2.03,0.649,2.913
						c0.408,0.729,0.972,1.386,1.695,1.805c0.723,0.419,1.613,0.581,2.413,0.339c1.045-0.316,1.794-1.265,2.192-2.282
						c0.641-1.639,0.457-3.665-0.747-4.949c-1.204-1.284-3.478-1.519-4.726-0.278"/>
				</g>
			</g>
			<g>
				<g>
					<path style="fill:#455A64;" d="M268.842,229.335c-0.034-0.087,0.295-0.355,1.007-0.603c0.707-0.248,1.812-0.438,3.176-0.274
						c1.347,0.179,2.969,0.738,4.374,1.974c1.42,1.221,2.434,3.156,2.672,5.28c0.232,2.126-0.337,4.236-1.456,5.737
						c-1.102,1.512-2.562,2.412-3.838,2.88c-1.295,0.458-2.415,0.512-3.159,0.425c-0.749-0.086-1.129-0.276-1.114-0.369
						c0.014-0.261,1.659-0.017,3.844-1.074c1.066-0.531,2.242-1.399,3.085-2.682c0.852-1.262,1.273-2.98,1.086-4.746
						c-0.202-1.763-0.988-3.348-2.095-4.394c-1.102-1.069-2.439-1.659-3.595-1.945C270.465,228.99,268.913,229.587,268.842,229.335z
						"/>
				</g>
			</g>
			<g>
				<path style="fill:#455A64;" d="M251.923,225.608l1.559,21.665c0.121,1.681,1.536,2.974,3.221,2.943l13.34-0.246
					c1.728-0.032,3.113-1.442,3.113-3.171v-21.192H251.923z"/>
			</g>
			<g>
				<path style="fill:#FFBE9D;" d="M240.277,239.921l12.475-6.232l6.282-0.474l6.011-0.533c0,0,0.67,2.239-3.642,3.694
					c-3.509,1.184-6.728,2.2-6.728,2.2s0.986,5.913-2.274,9.173c-3.26,3.26-6.444,4.638-6.444,4.638L240.277,239.921z"/>
			</g>
		</g>
		<g>
			<g>
				<path style="fill:#0F4C81;" d="M40.294,197.526l21.034,195.316l95.836,23.021l97.438-28.264c0,0,12.186-94.915-69.63-106.312
					c0,0,3.885-82.713-27.458-96.146L40.294,197.526z"/>
			</g>
			<g>
				<g>
					<path style="fill:#263238;" d="M144.31,186.536c0,0,0.171,0.07,0.497,0.227c0.328,0.153,0.816,0.386,1.411,0.774
						c1.204,0.743,2.88,2.053,4.629,4.138c3.524,4.164,6.998,11.444,9.511,20.986c2.575,9.537,4.385,21.29,5.51,34.574
						c1.098,13.29,1.598,28.124,1.178,43.955l-0.226-0.262c2.453,0.364,4.953,0.628,7.45,1.086c2.483,0.528,5.025,0.92,7.511,1.665
						c5.036,1.229,9.997,3.124,14.818,5.43c6.675,3.276,12.706,7.583,17.69,12.689c0.6,0.66,1.198,1.318,1.794,1.973l0.892,0.982
						l0.822,1.036c0.546,0.69,1.091,1.378,1.633,2.064c0.499,0.718,0.996,1.434,1.491,2.147c1.03,1.401,1.837,2.931,2.742,4.381
						c0.399,0.756,0.797,1.51,1.193,2.26l0.59,1.125l0.526,1.151c2.859,6.103,4.683,12.412,5.776,18.56
						c0.558,3.075,0.895,6.121,1.089,9.103c0.187,2.984,0.226,5.902,0.019,8.753l-0.011,0.15l-0.15,0.038
						c-18.038,4.58-32.969,8.371-43.406,11.021c-5.204,1.307-9.285,2.331-12.083,3.034c-1.382,0.34-2.443,0.6-3.178,0.781
						c-0.719,0.173-1.094,0.246-1.094,0.246s0.364-0.116,1.078-0.31c0.731-0.195,1.787-0.476,3.162-0.843
						c2.792-0.729,6.863-1.792,12.054-3.148c10.426-2.693,25.341-6.545,43.361-11.199l-0.161,0.188
						c0.197-2.805,0.152-5.721-0.04-8.684c-0.2-2.965-0.54-5.993-1.101-9.05c-1.098-6.111-2.92-12.378-5.765-18.432l-0.523-1.142
						l-0.587-1.116c-0.394-0.744-0.789-1.492-1.186-2.242c-0.901-1.438-1.702-2.955-2.725-4.343
						c-0.492-0.707-0.985-1.416-1.48-2.128c-0.539-0.679-1.079-1.361-1.621-2.045l-0.815-1.027l-0.886-0.973
						c-0.591-0.65-1.184-1.301-1.779-1.955c-4.945-5.059-10.925-9.328-17.55-12.58c-4.786-2.289-9.713-4.174-14.72-5.397
						c-2.47-0.743-5-1.133-7.47-1.66c-2.483-0.458-4.973-0.722-7.414-1.087l-0.233-0.035l0.006-0.227
						c0.432-15.798-0.044-30.627-1.11-43.899c-1.093-13.268-2.862-25.005-5.386-34.526c-2.463-9.527-5.874-16.788-9.331-20.958
						c-1.715-2.089-3.36-3.41-4.541-4.174c-0.584-0.398-1.062-0.644-1.382-0.81C144.468,186.633,144.31,186.536,144.31,186.536z"/>
				</g>
			</g>
			<g>
				<g>
					<path style="fill:#263238;" d="M170.76,357.771c0.018-0.002,0.058,0.182,0.12,0.537c0.064,0.413,0.144,0.927,0.242,1.553
						c0.208,1.35,0.449,3.311,0.719,5.737c0.521,4.854,1.04,11.586,1.223,19.035c0.198,7.45,0.096,14.196-0.02,19.073
						c-0.075,2.383-0.136,4.338-0.181,5.776c-0.032,0.634-0.058,1.152-0.079,1.57c-0.024,0.359-0.045,0.547-0.063,0.547
						c-0.018,0-0.032-0.189-0.042-0.548c-0.005-0.418-0.011-0.937-0.019-1.571c0.004-1.439,0.009-3.394,0.015-5.777
						c0.022-4.878,0.065-11.616-0.133-19.054c-0.183-7.436-0.642-14.156-1.069-19.013c-0.228-2.371-0.415-4.317-0.553-5.748
						c-0.059-0.632-0.106-1.149-0.145-1.565C170.748,357.963,170.743,357.774,170.76,357.771z"/>
				</g>
			</g>
			<g>
				<g>
					<path style="fill:#263238;" d="M185.655,280.536c0.028,0.072-1.087,0.558-2.871,1.373c-1.784,0.814-4.229,1.98-6.863,3.395
						c-2.633,1.418-4.953,2.816-6.616,3.856c-1.663,1.039-2.683,1.702-2.728,1.639c-0.039-0.054,0.907-0.824,2.526-1.946
						c1.618-1.123,3.922-2.58,6.571-4.007c2.65-1.424,5.135-2.543,6.964-3.274C184.468,280.839,185.632,280.474,185.655,280.536z"/>
				</g>
			</g>
			<g>
				<g>
					<path style="fill:#263238;" d="M95.359,243.623c-0.017,0.005-0.089-0.196-0.209-0.582c-0.13-0.441-0.297-1.003-0.501-1.695
						c-0.444-1.539-1.055-3.655-1.802-6.243c-1.573-5.239-3.792-12.534-7.726-19.907c-3.936-7.372-9.166-13.043-13.59-16.237
						c-2.2-1.619-4.129-2.72-5.504-3.39c-1.372-0.676-2.157-1.002-2.139-1.047c0.006-0.017,0.208,0.05,0.587,0.192
						c0.374,0.154,0.947,0.334,1.639,0.672c1.41,0.618,3.384,1.678,5.633,3.275c2.253,1.59,4.725,3.786,7.127,6.531
						c2.401,2.745,4.7,6.057,6.705,9.757c3.967,7.434,6.137,14.78,7.622,20.052c0.733,2.647,1.279,4.801,1.644,6.292
						c0.166,0.703,0.301,1.273,0.407,1.721C95.339,243.408,95.376,243.618,95.359,243.623z"/>
				</g>
			</g>
		</g>
		<g>
			<g>
				<g>
					<g>
						<g>
							<g>
								<g>
									<g>
										<g>
											<g>
												<g>
													<g>
														<g>
															<path style="fill:#FFBE9D;" d="M103.625,194.779l4.087,47.394l23.737-1.896c0.148-2.771-0.051-13.493-0.051-13.493
																s9.876-1.536,9.998-11.41c0.059-4.795-0.627-14.707-1.348-23.635c-0.8-9.905-9.362-17.354-19.282-16.775h0
																C110.493,175.565,102.741,184.526,103.625,194.779z"/>
														</g>
													</g>
												</g>
											</g>
										</g>
									</g>
								</g>
							</g>
							<g>
								<g>
									<g>
										<g>
											<g>
												<g>
													<g>
														<g>
															<path style="fill:#EB996E;" d="M131.415,226.642c0,0-6.241,0.508-12.874-3.659c0,0,3.043,7.107,12.896,6.217
																L131.415,226.642z"/>
														</g>
													</g>
												</g>
											</g>
										</g>
									</g>
								</g>
							</g>
						</g>
					</g>
				</g>
				<g>
					<g>
						<g>
							<g>
								<g>
									<g>
										<g>
											<g>
												<g>
													<g>
														<g>
															<g>
																<g>
																	<g>
																		<path style="fill:#263238;" d="M137.63,198.301c0.027,0.745-0.582,1.381-1.36,1.423
																			c-0.776,0.041-1.427-0.527-1.453-1.272c-0.026-0.745,0.582-1.382,1.358-1.424
																			C136.952,196.987,137.604,197.557,137.63,198.301z"/>
																	</g>
																</g>
															</g>
														</g>
													</g>
												</g>
											</g>
										</g>
										<g>
											<g>
												<g>
													<g>
														<g>
															<g>
																<g>
																	<g>
																		<g>
																			<path style="fill:#263238;" d="M137.938,196.716c-0.175,0.184-1.243-0.607-2.761-0.603
																				c-1.516-0.018-2.629,0.763-2.794,0.577c-0.081-0.082,0.097-0.414,0.582-0.767
																				c0.477-0.352,1.292-0.693,2.237-0.689c0.945,0.005,1.74,0.353,2.197,0.709
																				C137.866,196.301,138.024,196.633,137.938,196.716z"/>
																		</g>
																	</g>
																</g>
															</g>
														</g>
													</g>
												</g>
											</g>
										</g>
									</g>
									<g>
										<g>
											<g>
												<g>
													<g>
														<g>
															<g>
																<g>
																	<g>
																		<path style="fill:#263238;" d="M122.769,198.658c0.026,0.745-0.583,1.381-1.36,1.423
																			c-0.776,0.042-1.427-0.527-1.454-1.271c-0.026-0.745,0.583-1.382,1.358-1.424
																			C122.091,197.343,122.743,197.913,122.769,198.658z"/>
																	</g>
																</g>
															</g>
														</g>
													</g>
												</g>
											</g>
										</g>
										<g>
											<g>
												<g>
													<g>
														<g>
															<g>
																<g>
																	<g>
																		<g>
																			<path style="fill:#263238;" d="M123.022,196.999c-0.175,0.184-1.245-0.607-2.761-0.602
																				c-1.516-0.018-2.63,0.763-2.794,0.577c-0.081-0.082,0.096-0.414,0.582-0.767c0.477-0.352,1.291-0.694,2.236-0.69
																				c0.945,0.005,1.74,0.353,2.198,0.709C122.949,196.584,123.108,196.917,123.022,196.999z"/>
																		</g>
																	</g>
																</g>
															</g>
														</g>
													</g>
												</g>
											</g>
										</g>
									</g>
									<g>
										<g>
											<g>
												<g>
													<g>
														<g>
															<g>
																<g>
																	<g>
																		<path style="fill:#263238;" d="M128.529,208.253c-0.007-0.086,0.936-0.249,2.465-0.445
																			c0.387-0.04,0.754-0.117,0.82-0.382c0.091-0.28-0.071-0.698-0.259-1.148c-0.364-0.938-0.746-1.921-1.146-2.951
																			c-1.591-4.201-2.743-7.655-2.574-7.718c0.17-0.063,1.597,3.292,3.189,7.493c0.383,1.036,0.749,2.023,1.098,2.968
																			c0.146,0.44,0.399,0.94,0.201,1.521c-0.104,0.29-0.389,0.5-0.637,0.566c-0.248,0.076-0.466,0.08-0.658,0.092
																			C129.489,208.332,128.535,208.339,128.529,208.253z"/>
																	</g>
																</g>
															</g>
														</g>
													</g>
												</g>
											</g>
										</g>
									</g>
									<g>
										<g>
											<g>
												<g>
													<g>
														<g>
															<g>
																<g>
																	<g>
																		<path style="fill:#263238;" d="M124.063,209.302c0.247-0.015,0.25,1.633,1.66,2.802
																			c1.407,1.173,3.163,0.988,3.176,1.218c0.023,0.103-0.391,0.32-1.132,0.34c-0.727,0.025-1.789-0.209-2.651-0.924
																			c-0.86-0.717-1.23-1.674-1.286-2.349C123.767,209.701,123.951,209.293,124.063,209.302z"/>
																	</g>
																</g>
															</g>
														</g>
													</g>
												</g>
											</g>
										</g>
									</g>
								</g>
							</g>
						</g>
						<g>
							<g>
								<g>
									<g>
										<g>
											<g>
												<g>
													<g>
														<path style="fill:#263238;" d="M123.414,191.052c-0.15,0.413-1.665,0.217-3.445,0.432
															c-1.785,0.179-3.221,0.7-3.457,0.33c-0.105-0.177,0.145-0.565,0.725-0.965c0.575-0.399,1.493-0.778,2.562-0.897
															c1.069-0.117,2.047,0.053,2.696,0.317C123.149,190.532,123.478,190.856,123.414,191.052z"/>
													</g>
												</g>
											</g>
										</g>
									</g>
								</g>
							</g>
						</g>
						<g>
							<g>
								<g>
									<g>
										<g>
											<g>
												<g>
													<g>
														<path style="fill:#263238;" d="M137.38,192.324c-0.267,0.345-1.312-0.013-2.57-0.03
															c-1.256-0.061-2.321,0.232-2.566-0.129c-0.107-0.175,0.06-0.52,0.525-0.846c0.458-0.325,1.225-0.591,2.089-0.565
															c0.864,0.027,1.612,0.34,2.049,0.693C137.352,191.801,137.498,192.156,137.38,192.324z"/>
													</g>
												</g>
											</g>
										</g>
									</g>
								</g>
							</g>
						</g>
					</g>
				</g>
				<g>
					<g>
						<path style="fill:#263238;" d="M114.346,183.951c-0.018,0.014-0.036,0.029-0.054,0.043c-1.572,1.242-2.612,3.039-2.887,5.023
							c-0.01,0.07-0.019,0.136-0.027,0.199c-0.386,2.816-0.316,5.682-0.73,8.494c-0.413,2.813-1.388,5.674-3.468,7.612
							c-0.855,0.797-2.368,1.346-3.072,0.412c-0.272-0.361-0.317-0.84-0.352-1.291c-0.526-6.801-2.384-12.834-2.371-19.946
							c0.004-1.936,0.914-3.752,2.488-4.88c1.489-1.067,3.307-2.174,4.961-1.39c1.659,0.785,3.798,3.881,5.081,5.194"/>
					</g>
				</g>
				<g>
					<g>
						<g>
							<g>
								<g>
									<g>
										<g>
											<g>
												<g>
													<path style="fill:#FFBE9D;" d="M106.954,199.247c-0.168-0.073-6.785-2.007-6.569,4.744s6.949,5.142,6.954,4.948
														C107.345,208.745,106.954,199.247,106.954,199.247z"/>
												</g>
											</g>
										</g>
									</g>
								</g>
							</g>
						</g>
					</g>
					<g>
						<g>
							<g>
								<g>
									<g>
										<g>
											<g>
												<g>
													<g>
														<path style="fill:#EB996E;" d="M105.195,206.447c-0.03-0.021-0.115,0.086-0.311,0.184
															c-0.191,0.095-0.522,0.167-0.878,0.046c-0.722-0.239-1.358-1.352-1.43-2.568c-0.037-0.614,0.073-1.203,0.275-1.694
															c0.19-0.501,0.499-0.856,0.856-0.931c0.355-0.094,0.616,0.113,0.704,0.3c0.097,0.186,0.058,0.322,0.094,0.332
															c0.02,0.016,0.141-0.118,0.078-0.395c-0.032-0.133-0.116-0.29-0.279-0.415c-0.166-0.126-0.407-0.186-0.656-0.151
															c-0.519,0.053-0.973,0.547-1.195,1.086c-0.251,0.543-0.389,1.205-0.348,1.895c0.087,1.359,0.824,2.61,1.809,2.861
															c0.479,0.109,0.87-0.047,1.07-0.213C105.188,206.611,105.219,206.459,105.195,206.447z"/>
													</g>
												</g>
											</g>
										</g>
									</g>
								</g>
							</g>
						</g>
					</g>
				</g>
				<g>
					<g>
						<path style="fill:#263238;" d="M108.606,179.273c-1.662-2.701,2.892-6.579,6.224-7.629c3.332-1.05,7.721,0.574,11.037,1.673
							c2.092,0.694,4.177,1.662,6.38,1.571c1.477-0.061,2.886-0.598,4.279-1.091c1.394-0.493,2.844-0.953,4.319-0.853
							s2.993,0.885,3.553,2.253c0.56,1.368-0.242,3.242-1.706,3.446c1.868-1.027,4.571,0.322,4.875,2.433
							c0.304,2.11-1.908,4.166-3.991,3.711c0.96-0.727,2.432,0.474,2.313,1.673c-0.118,1.199-1.205,2.071-2.308,2.555
							c-2.815,1.236-6.098,0.842-9.012-0.139c-2.914-0.981-5.616-2.508-8.505-3.561c-2.889-1.053-7.727-2.943-10.627-1.92
							c-2.135,0.753-3.621,3.324-4.826,2.757c-1.165-0.549-1.904-1.769-2.136-3.036C108.24,181.849,108.423,180.548,108.606,179.273
							"/>
					</g>
				</g>
				<g>
					<g>
						<g>
							<path style="fill:#455A64;" d="M143.506,178.458c-0.056-0.034-0.348,0.499-1.073,1.287c-0.726,0.774-1.95,1.792-3.751,2.415
								c-1.769,0.617-4.172,0.817-6.438-0.26c-2.297-1.028-4.261-3.086-6.523-5.026c-2.256-1.956-4.92-3.404-7.588-3.645
								c-2.653-0.253-5.103,0.72-6.456,2.236c-1.362,1.53-1.633,3.275-1.532,4.364c0.049,0.557,0.19,0.97,0.291,1.241
								c0.122,0.265,0.198,0.396,0.218,0.387c0.062-0.021-0.219-0.577-0.25-1.641c-0.021-1.038,0.318-2.658,1.617-4.028
								c1.284-1.353,3.573-2.214,6.051-1.946c2.49,0.258,5.014,1.632,7.217,3.542c2.219,1.896,4.244,4.01,6.702,5.077
								c2.447,1.123,5.022,0.85,6.851,0.143c1.871-0.712,3.098-1.836,3.786-2.687c0.341-0.433,0.578-0.791,0.704-1.052
								C143.467,178.607,143.526,178.469,143.506,178.458z"/>
						</g>
					</g>
				</g>
				<g>
					<g>
						<g>
							<path style="fill:#455A64;" d="M105.235,198.952c0.025,0.023,0.291-0.186,0.546-0.722c0.258-0.528,0.459-1.397,0.337-2.447
								c-0.15-2.175-2.073-4.509-2.318-7.514c-0.149-1.484,0.111-2.931,0.747-4.03c0.631-1.095,1.62-1.809,2.509-2.167
								c0.899-0.374,1.715-0.377,2.254-0.307c0.542,0.086,0.834,0.213,0.859,0.159c0.016-0.027-0.239-0.238-0.805-0.413
								c-0.56-0.157-1.461-0.233-2.471,0.118c-0.999,0.337-2.124,1.071-2.875,2.297c-0.745,1.214-1.043,2.812-0.882,4.405
								c0.137,1.602,0.721,3.05,1.302,4.255c0.578,1.21,1.06,2.294,1.212,3.261C106.006,197.827,105.136,198.92,105.235,198.952z"/>
						</g>
					</g>
				</g>
			</g>
		</g>
		<g>
			<polygon style="fill:#263238;" points="238.051,382.783 241.327,438.403 245.846,438.403 247.871,382.783 			"/>
		</g>
		<g>
			<polygon style="fill:#263238;" points="156.245,409.691 159.52,465.311 164.039,465.311 166.064,409.691 			"/>
		</g>
		<g>
			<polygon style="fill:#263238;" points="62.643,391.431 65.921,438.403 70.44,438.403 72.463,391.431 			"/>
		</g>
		<g>
			<g>
				<path style="fill:#455A64;" d="M106.612,233.764c0,0-16.969,10.578-19.173,18.733c0,0-3.306,6.611,0,17.851
					c3.306,11.239,50.186,61.273,50.186,61.273l39.951-14.909l-17.634-31.324c0,0-4.881-46.177-6.608-48.758
					c-5.603-8.375-25.9-5.011-25.9-5.011L106.612,233.764z"/>
			</g>
			<g>
				<path style="fill:#455A64;" d="M149.502,233.257c0.923,0.566,37.39,14.491,37.39,14.491l53.048-8.542l6.906,14.704
					l-43.687,17.413c-6.509,2.594-13.647,3.17-20.488,1.652l-24.871-5.518L149.502,233.257z"/>
			</g>
			<g>
				<g>
					<path style="fill:#263238;" d="M159.954,285.968c-0.036,0.001-0.089-0.546-0.154-1.533c-0.055-0.987-0.17-2.414-0.332-4.173
						c-0.319-3.521-1.02-8.353-1.89-13.683c-0.871-5.333-1.515-10.196-1.753-13.736c-0.119-1.769-0.185-3.203-0.183-4.195
						c-0.008-0.992,0.004-1.539,0.04-1.54c0.036-0.001,0.092,0.545,0.163,1.532c0.06,0.987,0.182,2.413,0.347,4.172
						c0.331,3.52,1.029,8.352,1.901,13.685c0.871,5.331,1.517,10.194,1.743,13.735c0.116,1.77,0.175,3.204,0.167,4.196
						C160.006,285.419,159.99,285.967,159.954,285.968z"/>
				</g>
			</g>
			<g>
				<g>
					<path style="fill:#263238;" d="M159.954,285.968c0.016,0.078-1.233,0.383-3.228,0.944c-1.995,0.559-4.73,1.406-7.678,2.539
						c-2.947,1.139-5.543,2.347-7.397,3.271c-1.855,0.923-2.986,1.535-3.026,1.466c-0.018-0.031,0.243-0.22,0.732-0.537
						c0.488-0.319,1.212-0.75,2.123-1.255c1.82-1.013,4.411-2.284,7.381-3.431c2.97-1.143,5.744-1.939,7.773-2.41
						c1.014-0.236,1.841-0.403,2.416-0.494C159.626,285.968,159.947,285.933,159.954,285.968z"/>
				</g>
			</g>
			<g>
				<g>
					<path style="fill:#263238;" d="M160.72,287.092c0.064,0.158-3.52,1.356-7.3,3.979c-3.803,2.592-6.204,5.509-6.328,5.393
						c-0.048-0.039,0.487-0.818,1.521-1.939c1.031-1.121,2.591-2.559,4.512-3.883c1.923-1.32,3.824-2.262,5.24-2.824
						C159.781,287.255,160.7,287.033,160.72,287.092z"/>
				</g>
			</g>
			<g>
				<g>
					<path style="fill:#455A64;" d="M106.051,236.997c-0.125-2.241-0.25-4.482-0.375-6.723c-0.024-0.423-0.032-0.894,0.248-1.213
						c0.455-0.519,1.293-0.282,1.936-0.031c5.762,2.249,12.364,2.265,18.137,0.044c1.344-0.517,2.657-1.154,4.073-1.417
						c1.416-0.263,2.999-0.095,4.089,0.846c1.471,1.268,1.564,2.225,1.595,4.167c0.053,3.412-0.006,8.469-2.442,10.859
						c-1.655,1.624-4.038,2.208-6.298,2.726c-5.159,1.183-10.512,2.37-15.697,1.307c-2.294-0.471-4.601-1.459-6.006-3.332
						c-1.914-2.552-0.043-5.596,0.658-8.708"/>
				</g>
				<g>
					<g>
						<path style="fill:#263238;" d="M135.764,230.64c0.025,0,0.048,0.234,0.071,0.678c0.017,0.527,0.038,1.166,0.063,1.939v0.002
							l-0.001,0.011c-0.051,0.787-0.296,1.738-0.816,2.709c-0.515,0.972-1.313,1.945-2.328,2.82
							c-1.017,0.877-2.226,1.683-3.622,2.33c-1.399,0.634-2.959,1.063-4.585,1.354c-4.953,0.836-9.55,0.436-12.725-0.371
							c-1.592-0.402-2.828-0.954-3.586-1.49c-0.381-0.265-0.635-0.526-0.789-0.714c-0.141-0.201-0.206-0.309-0.191-0.319
							c0.043-0.035,0.313,0.409,1.092,0.864c0.764,0.465,1.986,0.951,3.562,1.301c3.138,0.703,7.686,1.037,12.547,0.216
							c1.594-0.285,3.118-0.7,4.47-1.3c1.343-0.608,2.543-1.386,3.535-2.215c2.024-1.647,3.03-3.703,3.17-5.211l-0.001,0.013
							c0.025-0.773,0.046-1.413,0.063-1.939C135.716,230.874,135.74,230.64,135.764,230.64z"/>
					</g>
				</g>
				<g>
					<g>
						<path style="fill:#263238;" d="M110.08,240.992c-0.048,0.034-0.484-0.461-0.954-1.412c-0.471-0.945-0.922-2.37-1.002-3.995
							c-0.074-1.625,0.241-3.087,0.621-4.072c0.378-0.99,0.765-1.524,0.817-1.495c0.158,0.055-1.094,2.4-0.918,5.542
							C108.766,238.706,110.232,240.923,110.08,240.992z"/>
					</g>
				</g>
				<g>
					<g>
						<path style="fill:#263238;" d="M117.032,242.127c-0.047,0.035-0.517-0.466-1.044-1.437c-0.529-0.965-1.061-2.428-1.226-4.115
							c-0.159-1.688,0.086-3.225,0.421-4.273c0.333-1.053,0.699-1.635,0.752-1.609c0.162,0.046-0.997,2.563-0.655,5.833
							C115.566,239.799,117.182,242.051,117.032,242.127z"/>
					</g>
				</g>
				<g>
					<g>
						<path style="fill:#263238;" d="M123.923,241.414c-0.111,0.066-1.364-2.169-1.979-5.236c-0.634-3.064-0.355-5.611-0.228-5.594
							c0.159,0.003,0.118,2.501,0.738,5.49C123.053,239.066,124.069,241.349,123.923,241.414z"/>
					</g>
				</g>
				<g>
					<g>
						<path style="fill:#263238;" d="M131.285,239.1c-0.086-0.01-0.03-0.664-0.135-1.696c-0.101-1.03-0.426-2.439-1.148-3.841
							c-0.73-1.399-1.694-2.476-2.478-3.152c-0.783-0.681-1.35-1.011-1.308-1.088c0.024-0.051,0.662,0.166,1.539,0.8
							c0.875,0.627,1.942,1.727,2.71,3.2c0.761,1.475,1.045,2.982,1.053,4.058C131.531,238.463,131.341,239.11,131.285,239.1z"/>
					</g>
				</g>
			</g>
			<g>
				<g>
					<path style="fill:#E0E0E0;" d="M98.617,242.773c-0.623,0.448-0.525,1.574,0.167,1.907c0.692,0.333,1.633-0.291,1.595-1.057
						c-0.038-0.767-1.035-1.296-1.691-0.896"/>
				</g>
				<g>
					<path style="fill:#E0E0E0;" d="M106.103,284.818c-0.623,0.448-0.525,1.573,0.167,1.907c0.692,0.333,1.633-0.29,1.596-1.057
						c-0.038-0.767-1.035-1.296-1.691-0.896"/>
				</g>
				<g>
					<path style="fill:#E0E0E0;" d="M123.143,252.868c-0.623,0.448-0.525,1.574,0.167,1.907c0.692,0.333,1.633-0.29,1.596-1.058
						c-0.038-0.767-1.035-1.296-1.691-0.896"/>
				</g>
				<g>
					<path style="fill:#E0E0E0;" d="M150.559,254.914c-0.623,0.448-0.525,1.574,0.167,1.907c0.692,0.333,1.633-0.291,1.596-1.057
						c-0.038-0.767-1.035-1.296-1.691-0.896"/>
				</g>
				<g>
					<path style="fill:#E0E0E0;" d="M148.864,238.25c-0.623,0.448-0.525,1.574,0.167,1.907c0.692,0.333,1.633-0.29,1.595-1.058
						c-0.038-0.767-1.035-1.296-1.691-0.896"/>
				</g>
				<g>
					<path style="fill:#E0E0E0;" d="M164.816,245.314c-0.623,0.448-0.525,1.574,0.167,1.907c0.692,0.333,1.633-0.29,1.596-1.057
						c-0.038-0.767-1.035-1.296-1.691-0.896"/>
				</g>
				<g>
					<path style="fill:#E0E0E0;" d="M191.893,265.63c-0.623,0.448-0.525,1.573,0.167,1.907c0.692,0.333,1.633-0.29,1.596-1.057
						c-0.038-0.767-1.036-1.296-1.691-0.896"/>
				</g>
				<g>
					<path style="fill:#E0E0E0;" d="M197.5,251.48c-0.623,0.448-0.525,1.574,0.167,1.907c0.692,0.333,1.633-0.291,1.596-1.058
						c-0.038-0.767-1.035-1.296-1.691-0.896"/>
				</g>
				<g>
					<path style="fill:#E0E0E0;" d="M221.293,249.038c-0.623,0.448-0.525,1.573,0.167,1.907c0.692,0.333,1.633-0.29,1.596-1.057
						c-0.038-0.767-1.035-1.296-1.691-0.896"/>
				</g>
				<g>
					<path style="fill:#E0E0E0;" d="M236.524,251.136c-0.623,0.448-0.525,1.573,0.167,1.907c0.692,0.333,1.633-0.29,1.596-1.057
						c-0.038-0.767-1.036-1.296-1.691-0.896"/>
				</g>
				<g>
					<path style="fill:#E0E0E0;" d="M210.681,261.492c-0.623,0.448-0.525,1.573,0.167,1.907c0.692,0.333,1.633-0.291,1.596-1.057
						c-0.038-0.767-1.036-1.296-1.691-0.896"/>
				</g>
				<g>
					<path style="fill:#E0E0E0;" d="M178.373,256.949c-0.623,0.448-0.525,1.574,0.167,1.907s1.633-0.29,1.596-1.057
						c-0.038-0.767-1.036-1.296-1.691-0.896"/>
				</g>
				<g>
					<path style="fill:#E0E0E0;" d="M163.729,260.4c-0.623,0.448-0.525,1.573,0.167,1.907c0.692,0.333,1.633-0.291,1.596-1.058
						c-0.038-0.767-1.035-1.296-1.691-0.896"/>
				</g>
				<g>
					<path style="fill:#E0E0E0;" d="M151.041,275.727c-0.623,0.448-0.525,1.573,0.167,1.907s1.633-0.291,1.596-1.057
						s-1.035-1.296-1.691-0.896"/>
				</g>
				<g>
					<path style="fill:#E0E0E0;" d="M141.865,269.101c-0.623,0.448-0.525,1.573,0.167,1.907c0.692,0.333,1.633-0.29,1.596-1.057
						c-0.038-0.767-1.035-1.296-1.691-0.897"/>
				</g>
				<g>
					<path style="fill:#E0E0E0;" d="M138.458,287.117c-0.623,0.448-0.525,1.574,0.167,1.907c0.692,0.333,1.633-0.291,1.596-1.058
						c-0.038-0.767-1.036-1.296-1.691-0.896"/>
				</g>
				<g>
					<path style="fill:#E0E0E0;" d="M134.462,242.831c-0.623,0.448-0.525,1.574,0.167,1.907c0.692,0.333,1.633-0.291,1.596-1.058
						c-0.038-0.767-1.036-1.296-1.691-0.896"/>
				</g>
				<g>
					<path style="fill:#E0E0E0;" d="M123.25,283.727c-0.623,0.448-0.525,1.573,0.167,1.907c0.692,0.333,1.633-0.29,1.595-1.057
						c-0.037-0.767-1.035-1.296-1.691-0.896"/>
				</g>
				<g>
					<path style="fill:#E0E0E0;" d="M115.927,271.265c-0.623,0.448-0.525,1.573,0.167,1.907c0.692,0.333,1.633-0.29,1.596-1.057
						c-0.038-0.767-1.035-1.296-1.691-0.896"/>
				</g>
			</g>
		</g>
		<g>
			<g>
				<path style="fill:#E0E0E0;" d="M149.184,306.313c0.009-0.002,0.037,0.072,0.083,0.219c0.052,0.178,0.116,0.394,0.194,0.658
					c0.16,0.581,0.387,1.44,0.624,2.561c0.236,1.12,0.491,2.504,0.621,4.132c0.117,1.624,0.151,3.509-0.275,5.537
					c-0.204,1.012-0.516,2.06-0.999,3.086c-0.449,1.04-1.116,2.049-1.994,2.916c-0.875,0.856-2.032,1.58-3.382,1.735
					c-1.35,0.167-2.746-0.339-3.848-1.179c-1.118-0.839-2.02-1.963-2.755-3.193c-0.741-1.226-1.364-2.553-1.88-3.945
					c-1.039-2.786-1.617-5.814-2.067-8.904c-1.709-12.38-2.305-23.688-2.421-31.866c-0.056-4.09-0.014-7.4,0.055-9.686
					c0.026-1.143,0.072-2.03,0.1-2.632c0.016-0.274,0.03-0.499,0.041-0.684c0.012-0.154,0.023-0.233,0.032-0.232
					c0.009,0,0.016,0.079,0.021,0.234c0.003,0.185,0.006,0.41,0.01,0.685c0,0.646-0.001,1.524-0.002,2.632
					c-0.007,2.285,0.007,5.592,0.11,9.676c0.209,8.164,0.863,19.451,2.568,31.8c0.448,3.074,1.018,6.066,2.031,8.801
					c0.503,1.366,1.108,2.666,1.827,3.865c0.707,1.195,1.572,2.275,2.617,3.066c1.034,0.793,2.292,1.249,3.51,1.107
					c1.217-0.131,2.296-0.784,3.131-1.59c0.838-0.815,1.487-1.773,1.93-2.775c0.478-0.99,0.792-2.007,1.003-2.993
					c0.44-1.976,0.434-3.833,0.345-5.44c-0.101-1.612-0.324-2.992-0.529-4.113c-0.206-1.122-0.4-1.987-0.527-2.576
					c-0.058-0.268-0.105-0.488-0.144-0.669C149.187,306.394,149.176,306.315,149.184,306.313z"/>
			</g>
		</g>
		<g>
			<g>
				<path style="fill:#E0E0E0;" d="M313.709,414.696l36.375,11.73l21.567-42.465l0,0c-1.186-1.428-3.322-1.58-4.699-0.335
					l-21.354,19.31l-21.095-6.358L313.709,414.696z"/>
			</g>
			<g>
				<path style="fill:#E0E0E0;" d="M236.981,339.6l7.594,29.656l44.918-1.222c1.404-0.038,2.432-1.335,2.148-2.711l0,0
					c-0.16-0.775-0.714-1.41-1.461-1.673l-27.099-9.54l-4.472-21.574L236.981,339.6z"/>
			</g>
			<g>
				<path style="fill:#263238;" d="M177.576,316.712c0,0,24.413-38.266,34.791-52.439c8.557-11.686,32.964-11.94,36.581,6.555
					c2.697,13.793,19.894,74.415,19.894,74.415l-33.039,3.886l-11.087-39.211c0,0-19.795,41.726-26.541,46.451
					c-6.746,4.725-42.131-31.622-42.131-31.622L177.576,316.712z"/>
			</g>
			<g>
				<path style="fill:#263238;" d="M332.807,395.536l-82.751-37.903l-89.102-34.717l-27.058,8.706c0,0,13.325,32.887,17.238,37.635
					c3.914,4.748,34.712,8.04,34.712,8.04l53.808,10.984l83.186,32.963L332.807,395.536z"/>
			</g>
			<g>
				<g>
					<path style="fill:#455A64;" d="M259.121,361.785c-0.007,0.017-0.286-0.077-0.811-0.269c-0.567-0.214-1.33-0.501-2.289-0.863
						c-2.028-0.787-4.882-1.893-8.389-3.253c-7.116-2.782-16.87-6.594-27.646-10.806c-10.794-4.172-20.563-7.948-27.69-10.702
						c-3.516-1.335-6.377-2.422-8.41-3.194c-0.957-0.369-1.717-0.662-2.283-0.88c-0.52-0.207-0.79-0.323-0.784-0.34
						c0.006-0.017,0.288,0.067,0.819,0.241c0.574,0.195,1.345,0.458,2.316,0.788c2.011,0.688,4.901,1.736,8.47,3.04
						c7.133,2.618,16.946,6.348,27.75,10.562c10.801,4.21,20.549,8.099,27.592,10.949c3.481,1.424,6.314,2.583,8.328,3.407
						c0.944,0.4,1.695,0.718,2.253,0.954C258.861,361.642,259.127,361.768,259.121,361.785z"/>
				</g>
			</g>
			<g>
				<g>
					<path style="fill:#455A64;" d="M228.39,322.915c-0.033,0.017-0.231-0.559-0.517-1.598c-0.291-1.04-0.688-2.551-1.165-4.421
						c-0.954-3.74-2.225-8.919-3.587-14.647c-1.362-5.731-2.558-10.928-3.386-14.698c-0.414-1.885-0.737-3.414-0.942-4.474
						c-0.21-1.056-0.283-1.666-0.246-1.662c0.036,0.004,0.172,0.569,0.444,1.618c0.282,1.133,0.654,2.628,1.103,4.435
						c0.924,3.834,2.164,8.976,3.534,14.661c1.333,5.692,2.539,10.841,3.438,14.681c0.409,1.816,0.747,3.319,1.004,4.459
						C228.297,322.326,228.423,322.899,228.39,322.915z"/>
				</g>
			</g>
			<g>
				<g>
					<path style="fill:#455A64;" d="M223.437,300.523c-0.033,0.055-0.806-0.323-1.956-1.1c-1.149-0.775-2.657-1.979-4.12-3.516
						c-1.461-1.54-2.587-3.107-3.302-4.295c-0.718-1.188-1.055-1.979-0.999-2.009c0.143-0.086,1.785,2.925,4.678,5.945
						C220.606,298.591,223.53,300.385,223.437,300.523z"/>
				</g>
			</g>
		</g>
		<g>
			<g>
				<path style="fill:#E0E0E0;" d="M104.008,203.537c-1.198,0.187-2.262,0.787-2.872,1.834c-0.61,1.048-0.72,2.372-0.291,3.506
					c0.243,0.643,0.802,1.295,1.483,1.197c0.392-0.056,0.714-0.361,0.888-0.717c0.173-0.356,0.22-0.76,0.243-1.155
					c0.014-0.237,0.026-0.49,0.167-0.68c0.123-0.166,0.321-0.255,0.497-0.363c0.621-0.384,1.012-1.114,0.989-1.844
					C105.089,204.584,104.652,203.881,104.008,203.537"/>
			</g>
			<g>
				<g>
					<path style="fill:#E0E0E0;" d="M136.775,224.654c0.009-0.002,0.041,0.094,0.095,0.284c0.059,0.219,0.134,0.497,0.228,0.845
						c0.198,0.781,0.475,1.873,0.828,3.261c0.354,1.43,0.782,3.163,1.277,5.168c0.489,2.016,1.08,4.306,1.591,6.875
						c0.497,2.567,0.921,5.434,0.79,8.535c-0.148,3.074-0.823,6.448-2.734,9.424c-0.957,1.472-2.266,2.786-3.844,3.746
						c-1.589,0.944-3.42,1.527-5.315,1.756c-1.9,0.204-3.858,0.081-5.782-0.318c-1.921-0.42-3.807-1.107-5.599-2.025
						c-3.598-1.807-6.612-4.651-8.356-8.05c-1.78-3.376-2.65-6.96-3.411-10.323c-1.493-6.751-2.582-12.883-3.379-18.049
						c-0.796-5.166-1.293-9.367-1.603-12.273c-0.15-1.453-0.26-2.583-0.32-3.35c-0.027-0.36-0.049-0.647-0.065-0.873
						c-0.012-0.197-0.014-0.298-0.005-0.299c0.009-0.001,0.028,0.099,0.058,0.294c0.03,0.224,0.069,0.51,0.117,0.867
						c0.1,0.799,0.24,1.917,0.417,3.337c0.372,2.896,0.924,7.086,1.766,12.239c0.843,5.152,1.968,11.268,3.484,18.001
						c0.77,3.35,1.646,6.895,3.392,10.187c1.707,3.308,4.621,6.054,8.144,7.828c1.755,0.899,3.598,1.571,5.469,1.982
						c1.874,0.391,3.778,0.512,5.616,0.318c1.833-0.219,3.592-0.776,5.117-1.676c1.514-0.916,2.77-2.167,3.699-3.583
						c1.856-2.862,2.542-6.162,2.704-9.182c0.148-3.046-0.249-5.889-0.721-8.445c-0.485-2.559-1.051-4.854-1.513-6.877
						c-0.462-2.013-0.862-3.752-1.191-5.188c-0.312-1.398-0.557-2.497-0.733-3.284c-0.073-0.353-0.132-0.635-0.178-0.857
						C136.781,224.756,136.766,224.656,136.775,224.654z"/>
				</g>
			</g>
		</g>
		<g>
			<g>
				<path style="fill:#0F4C81;" d="M157.164,415.862c0.828-22.064,1.842-47.603-4.031-68.859
					c-3.197-11.57-7.756-23.441-16.943-30.999c-12.404-10.205-32.041-12.054-47.963-11.036
					c-1.162-24.483-4.016-46.808-12.554-69.729c-3.189-8.561-6.953-17.066-12.815-24.013c-5.862-6.947-13.578-13.167-22.564-13.666
					l21.034,195.281L157.164,415.862z"/>
			</g>
			<g>
				<path style="fill:#0F4C81;" d="M173.23,411.202c0.608-22.116-1.057-56.109-6.93-77.365c-3.197-11.57-7.756-23.441-16.943-30.999
					c-12.404-10.205-32.041-12.054-47.963-11.036c-1.163-24.483-4.016-46.808-12.554-69.729
					c-3.189-8.561-6.953-17.066-12.815-24.013c-5.862-6.947-26.744-0.034-35.731-0.533l34.42,182.202l82.45,36.134L173.23,411.202z"
					/>
			</g>
			<g style="opacity:0.4;">
				<g>
					<path d="M157.164,415.862c0.828-22.064,1.842-47.603-4.031-68.859c-3.197-11.57-7.756-23.441-16.943-30.999
						c-12.404-10.205-32.041-12.054-47.963-11.036c-1.162-24.483-4.016-46.808-12.554-69.729
						c-3.189-8.561-6.953-17.066-12.815-24.013c-5.862-6.947-13.578-13.167-22.564-13.666l21.034,195.281L157.164,415.862z"/>
				</g>
			</g>
		</g>
		<g>
			<g>
				<g>
					<path style="fill:#455A64;" d="M89.783,247.748c0,0-24.159,26.043-29.568,50.045c-2.026,8.991,2.018,18.258,9.946,22.958l0,0
						c5.067,3.004,11.152,3.777,16.81,2.135l45.429-13.183l-1.036-16.286l-43.985,2.699l19.443-25.917l7.777-9.033l-19.04-18.993
						L89.783,247.748z"/>
				</g>
				<g>
					<g>
						<path style="fill:#263238;" d="M111.798,315.681c-0.003-0.011,0.122-0.059,0.367-0.142c0.281-0.091,0.641-0.206,1.089-0.35
							c1.002-0.306,2.398-0.732,4.157-1.269c3.637-1.079,8.766-2.601,14.927-4.428l-0.158,0.226
							c-0.319-4.841-0.683-10.365-1.072-16.284l0.232,0.239c-2.464,0.121-5.164,0.32-7.849,0.497
							c-12.567,0.853-23.94,1.625-32.228,2.187c-4.09,0.258-7.416,0.467-9.77,0.616c-1.12,0.06-2.007,0.107-2.658,0.142
							c-0.278,0.01-0.505,0.017-0.692,0.024c-0.156,0.002-0.237-0.001-0.237-0.01c-0.001-0.009,0.078-0.023,0.233-0.043
							c0.186-0.02,0.412-0.045,0.688-0.075c0.65-0.059,1.534-0.139,2.651-0.239c2.351-0.188,5.673-0.454,9.758-0.781
							c8.242-0.633,19.631-1.479,32.219-2.339c2.719-0.176,5.312-0.375,7.932-0.488l0.217-0.009l0.015,0.249
							c0.364,5.92,0.703,11.446,1,16.288l0.011,0.178l-0.17,0.048c-6.183,1.754-11.329,3.215-14.979,4.25
							c-1.773,0.488-3.18,0.875-4.191,1.153c-0.455,0.118-0.821,0.213-1.107,0.287C111.932,315.666,111.801,315.693,111.798,315.681
							z"/>
					</g>
				</g>
				<g>
					<g>
						<path style="fill:#263238;" d="M88.183,296.61c-0.107,0.132-2.343-2.044-5.826-3.468c-3.468-1.465-6.586-1.515-6.568-1.684
							c0-0.061,0.776-0.132,2.026-0.01c1.247,0.119,2.965,0.478,4.742,1.213c1.774,0.741,3.24,1.705,4.204,2.505
							C87.729,295.967,88.226,296.566,88.183,296.61z"/>
					</g>
				</g>
				<g>
					<g>
						<path style="fill:#263238;" d="M96.317,284.199c-0.013-0.012,0.099-0.166,0.321-0.451c0.261-0.329,0.585-0.738,0.982-1.238
							c0.853-1.075,2.085-2.631,3.539-4.604c1.441-1.979,3.147-4.355,4.743-7.163c0.802-1.399,1.559-2.922,2.118-4.564
							c0.559-1.638,0.754-3.459,0.556-5.286c-0.379-3.672-2.203-6.933-4.555-9.073c-2.371-2.159-5.176-3.231-7.553-3.653
							c-2.398-0.421-4.393-0.257-5.736-0.048c-1.346,0.226-2.07,0.467-2.085,0.417c-0.006-0.017,0.171-0.087,0.515-0.204
							c0.341-0.126,0.859-0.263,1.534-0.412c1.348-0.273,3.374-0.499,5.834-0.115c2.437,0.384,5.339,1.444,7.813,3.66
							c2.454,2.197,4.356,5.562,4.75,9.374c0.207,1.895-0.001,3.797-0.589,5.498c-0.585,1.697-1.364,3.236-2.187,4.644
							c-1.636,2.825-3.38,5.187-4.865,7.146c-1.496,1.952-2.775,3.476-3.677,4.513c-0.451,0.519-0.81,0.913-1.059,1.177
							C96.469,284.08,96.33,284.211,96.317,284.199z"/>
					</g>
				</g>
				<g>
					<g>
						<path style="fill:#263238;" d="M140.679,311.042c2.068-3.789,10.509-18.726,12.704-22.607
							c0.285-0.504,0.933-0.656,1.416-0.338l9.831,6.466c0.43,0.283,0.575,0.845,0.336,1.3l-11.677,22.236
							c-0.262,0.499-0.885,0.683-1.376,0.406l-10.848-6.114C140.589,312.122,140.416,311.522,140.679,311.042z"/>
					</g>
				</g>
			</g>
			<g>
				<path style="fill:#E0E0E0;" d="M85.252,267.089c-0.623,0.448-0.525,1.574,0.167,1.907c0.692,0.333,1.633-0.291,1.596-1.058
					c-0.038-0.767-1.035-1.296-1.691-0.896"/>
			</g>
			<g>
				<path style="fill:#E0E0E0;" d="M69.939,298.616c-0.623,0.448-0.525,1.574,0.167,1.907c0.692,0.333,1.633-0.29,1.595-1.057
					c-0.037-0.767-1.035-1.296-1.691-0.896"/>
			</g>
			<g>
				<path style="fill:#E0E0E0;" d="M99.41,313.118c-0.623,0.448-0.525,1.573,0.167,1.907c0.692,0.333,1.633-0.29,1.596-1.057
					c-0.038-0.767-1.035-1.296-1.691-0.896"/>
			</g>
			<g>
				<path style="fill:#E0E0E0;" d="M113.672,301.078c-0.623,0.448-0.525,1.573,0.167,1.907c0.692,0.333,1.633-0.29,1.595-1.057
					c-0.038-0.767-1.035-1.296-1.691-0.896"/>
			</g>
			<g>
				<path style="fill:#E0E0E0;" d="M84.837,285.968c-0.623,0.448-0.525,1.573,0.167,1.907c0.692,0.333,1.633-0.291,1.596-1.057
					c-0.038-0.767-1.035-1.296-1.691-0.896"/>
			</g>
			<g>
				<path style="fill:#E0E0E0;" d="M102.099,261.434c-0.623,0.448-0.525,1.573,0.167,1.907c0.692,0.333,1.633-0.29,1.595-1.057
					c-0.037-0.767-1.035-1.296-1.691-0.896"/>
			</g>
			<g>
				<path style="fill:#E0E0E0;" d="M89.063,302.169c-0.623,0.448-0.525,1.574,0.167,1.907c0.692,0.333,1.633-0.291,1.596-1.058
					c-0.038-0.767-1.035-1.296-1.691-0.896"/>
			</g>
			<g>
				<path style="fill:#E0E0E0;" d="M69.432,281.414c-0.623,0.448-0.525,1.574,0.167,1.907c0.692,0.333,1.633-0.29,1.596-1.058
					c-0.038-0.767-1.035-1.296-1.691-0.896"/>
			</g>
			<g>
				<path style="fill:#E0E0E0;" d="M75.789,317.427c-0.623,0.448-0.525,1.573,0.167,1.907c0.692,0.333,1.633-0.291,1.596-1.057
					c-0.038-0.767-1.036-1.296-1.691-0.896"/>
			</g>
			<g>
				<path style="fill:#E0E0E0;" d="M157.633,293.996c0.565-0.058,1.133,0.392,1.207,0.954c0.074,0.563-0.358,1.144-0.919,1.235
					c-0.56,0.091-1.154-0.325-1.261-0.882c-0.107-0.557,0.29-1.163,0.844-1.287"/>
			</g>
		</g>
		<g>
			<g>
				<polygon style="fill:#FFBE9D;" points="131.873,294.84 149.764,294.84 160.405,304.548 154.37,317.427 142.422,307.897 
					132.611,307.972 				"/>
			</g>
			<g>
				<path style="fill:#FFBE9D;" d="M160.405,304.548l0.701,3.707c0.211,1.117-0.274,2.251-1.228,2.87l-1.021,0.662l0.147,0.901
					c0.17,1.036-0.36,2.062-1.303,2.523l-0.962,0.47l-0.007,0.041c-0.182,1.122-1.239,1.885-2.362,1.704l0,0l-0.464-5.689
					L160.405,304.548z"/>
			</g>
			<g>
				<g>
					<path style="fill:#EB996E;" d="M159.016,313.062c-0.148,0.007-0.329-1.407-0.634-3.129c-0.299-1.724-0.611-3.115-0.469-3.158
						c0.132-0.043,0.676,1.308,0.982,3.068C159.206,311.602,159.155,313.057,159.016,313.062z"/>
				</g>
			</g>
			<g>
				<g>
					<path style="fill:#EB996E;" d="M156.688,315.937c-0.145,0.018-0.371-0.857-0.622-1.931c-0.248-1.076-0.431-1.96-0.293-2.008
						c0.133-0.047,0.545,0.785,0.8,1.89C156.832,314.992,156.829,315.92,156.688,315.937z"/>
				</g>
			</g>
		</g>
	</g>
</g>
</svg>
